<?xml version="1.0" standalone="no"?><!DOCTYPE svg PUBLIC "-//W3C//DTD SVG 1.1//EN" "http://www.w3.org/Graphics/SVG/1.1/DTD/svg11.dtd"><svg t="1768789401090" class="icon" viewBox="0 0 1539 1024" version="1.1" xmlns="http://www.w3.org/2000/svg" p-id="9310" xmlns:xlink="http://www.w3.org/1999/xlink" width="300.5859375" height="200"><path d="M977.259083 332.795326h6.917656l9.909074-0.934818h2.243564c26.735804-2.430528 51.975899-5.60891 76.094213-9.348184a454.321709 454.321709 0 0 1 24.118313-65.063356c64.128538-133.865985 147.88826-194.442213 209.399306-215.75607 42.627716-15.144057 123.956911-24.118313 149.570933 11.404783A112.1782 112.1782 0 0 0 1409.706043 9.535147c-1.495709 0-2.991419-1.308746-4.487128-2.243564a382.527661 382.527661 0 0 0-183.59832 9.535147 529.294139 529.294139 0 0 0-165.275881 91.986124c-4.300164 3.365346-8.226401 6.917656-11.965674 10.469965a4.487128 4.487128 0 0 0-1.49571 1.121782c-3.739273 3.178382-7.66551 6.543728-11.21782 9.909074-7.478547 7.104619-14.957093 14.396202-21.687785 21.687786l-1.308746 1.308745-8.974256 9.909075-1.308745 1.121782c-6.356765 7.291583-12.900493 14.77013-18.696367 22.061712 0 0 0 0.934818-1.308746 1.308746-2.430528 3.178382-4.674092 6.356765-7.291583 9.535147a8.226401 8.226401 0 0 1-1.495709 2.0566l-7.291583 10.096038-7.66551 11.030856-1.121782 1.49571c-1.869637 3.365346-3.739273 6.169801-5.795874 9.161219s-1.121782 1.869637-1.869636 2.804455-3.365346 5.60891-5.234983 8.413365-0.934818 1.308746-1.308746 2.243564-4.300164 7.104619-6.356764 10.469966a3.739273 3.739273 0 0 1 0 1.495709c-1.682673 2.991419-3.365346 5.982837-4.861056 8.974256a26.174913 26.174913 0 0 1-1.682673 3.178382c-1.308746 2.430528-2.804455 4.674092-3.926237 7.291583l-1.495709 2.804455c-1.682673 3.55231-3.365346 6.917656-5.234983 10.096038-4.113201 8.413365-9.16122 18.696367-14.396202 30.849005-2.617491 6.543728-5.421946 13.087457-8.039438 18.696367 37.392733-2.430528 42.066825-3.178382 85.442396-7.478547z" fill="#30B06B" p-id="9311"></path><path d="M1517.210152 83.198831a157.236443 157.236443 0 0 0-23.93135-31.783823 175.93281 175.93281 0 0 0-82.264013-42.814679L1405.96677 7.478547l4.487128 2.0566c25.240095 13.27442 54.0325 40.384152 54.0325 73.476721a78.337776 78.337776 0 0 1-1.869637 14.022275A165.088917 165.088917 0 0 1 1439.62023 146.205587a248.474712 248.474712 0 0 1-57.771773 61.69801c-57.397846 45.058244-145.83166 83.946686-270.536425 107.130181-12.713529 2.430528-25.427059 4.487128-38.888442 6.730692-24.118313 3.739273-49.358408 6.917656-76.281176 9.348183-62.071937 5.795874-63.567647 6.543728-105.073581 9.535147-5.234983 0-11.591747 1.121782-18.696366 1.495709-56.0891 4.113201-267.171079-7.291583-325.877671-7.291583a832.549206 832.549206 0 0 0-249.222567 35.71006c-93.481833 29.166332-179.298156 79.272594-236.696001 158.732153a336.534599 336.534599 0 0 0-56.0891 127.322257 256.140223 256.140223 0 0 0 12.900493 134.61384 127.322257 127.322257 0 0 0 6.356765 14.583165 312.042359 312.042359 0 0 0 112.178199 133.118131l3.178383 1.308746H155.55377l4.300165 0.934818h37.392733a407.019901 407.019901 0 0 0 119.469783-7.478547h7.478546a265.488406 265.488406 0 0 1-31.783823 2.617492h-20.192076A163.780172 163.780172 0 0 1 136.67044 860.032865a218.560526 218.560526 0 0 1-20.752967-50.667154c0-3.178382-1.121782-6.356765-1.869637-9.535147a8.226401 8.226401 0 0 1 0-2.991418c0-2.804455-1.121782-5.795874-1.495709-8.787293A12.900493 12.900493 0 0 0 112.1782 785.247398a289.980646 289.980646 0 0 1-2.243564-34.401314 274.275698 274.275698 0 0 1 67.680847-176.119774 501.062626 501.062626 0 0 1 212.764652-147.514333 732.523644 732.523644 0 0 1 257.075041-44.310389h15.891912c14.396202 0 28.231514 1.121782 41.132006 2.243564 37.392733 3.55231 71.794048 8.226401 102.456089 13.461384 12.713529 2.0566 25.427059 4.674092 37.392734 7.10462l16.265839 2.991418a1304.445499 1304.445499 0 0 0 175.184955 24.679204c18.696367 1.121782 37.392733 1.682673 57.397846 1.682673h0.934818C1315.476356 435.438379 1520.20157 336.534599 1533.102063 165.649808v-18.135475a149.570933 149.570933 0 0 0-17.200657-64.315502z" fill="#EB8E25" p-id="9312"></path><path d="M861.528574 408.889538c-30.475078 67.119956-196.124886 419.17254-476.009494 516.767574a441.421216 441.421216 0 0 1-58.893555 16.265839h-7.478547a401.037064 401.037064 0 0 1-119.469782 7.478546h-10.096038c-7.852474 0-15.331021-1.869637-22.248677-3.178382h-6.356764l-8.413365-1.869637H139.661859l-3.178383-1.308745 3.739274 2.991418c18.696367 14.583166 108.812854 76.468139 259.692532 77.963849h5.795874c74.785466 0 179.48512-25.240095 289.980646-93.481833C878.729231 810.113566 974.828556 598.283732 1032.600329 444.412635c0.934818-2.804455 2.0566-5.421946 2.991418-8.226402s0-1.682673 0-2.617491a1276.213986 1276.213986 0 0 1-174.997991-24.679204z" fill="#1E50A2" p-id="9313"></path></svg>